<?xml version="1.0" encoding="utf-8"?>
<!-- Generator: Adobe Illustrator 20.1.0, SVG Export Plug-In . SVG Version: 6.00 Build 0)  -->
<svg version="1.1" id="圖層_1" xmlns="http://www.w3.org/2000/svg" xmlns:xlink="http://www.w3.org/1999/xlink" x="0px" y="0px"
	 viewBox="0 0 545.6 131" style="enable-background:new 0 0 545.6 131;" xml:space="preserve">
<style type="text/css">
	.st0{fill:#FFFFFF;}
</style>
<g>
	<g>
		<path class="st0" d="M59.2,1.6c6.7-0.2,13.5,1.2,19.4,5.9c1.7,1.4,3.4,2.8,4.1,4.9c0.9,2.6,2.8,5.7,0.5,7.9
			c-2.2,2-4.2-1.1-6.1-2.2c-12-6.3-30.5-4.6-41,4c-7.6,6.2-8.7,13.2-2.4,20.7C42.6,53.4,54.3,61,64.2,70.6
			c4.7,4.5,9.7,8.6,13.3,14.1c4.9,7.5,4.6,12.8-1.1,19.9c-7.7,9.5-18.4,14.7-29.1,19.9c-7.8,3.8-16.3,5.3-24.9,6.4
			c-3.9,0.5-7.7,0.1-11.5-1.1C5.7,128,0.5,126.3,0,119.5c-0.5-7,3.4-11.2,9-14.4c3.1-1.7,6.3-2.8,9.9-2.5c2.6,0.2,6,0.2,6.7,2.8
			c1,3.3-3.3,2.4-4.8,3.9c-1.7,1.7-5.3,2.3-4.1,5.7c1,2.7,3.9,2.2,6.2,1.9c10.5-1.2,20.3-4.2,28.5-11.1c7.8-6.6,8-11.7,1.2-19.1
			c-9.4-10.2-20.9-17.9-30.8-27.6c-15-14.7-13.6-34.4,3.4-46.9C35.4,4.9,45.9,1.6,59.2,1.6z"/>
		<path class="st0" d="M343.7,0.1c3.9,0,7.8,0.7,11.6,1.5c11.5,2.5,15.3,10.3,9.6,20.6C361.1,29,356.3,35,351.3,41
			c-4,4.8-8,9.6-11.5,14.8c-3.7,5.4-2.6,8.3,3.3,11c4.9,2.3,9.7,4.6,14.5,6.8c11.7,5.4,14.5,20.5,5.3,29.4
			c-16.8,16.2-36.4,26.8-60.2,28.1c-2.4,0.1-6,1.3-6.7-1.9c-0.7-3.1,3-4.1,5.1-4.9c13.5-4.6,24.3-13.2,34.8-22.4
			c3-2.6,5.5-6,7.7-9.3c2.3-3.4,0.7-6.2-2.7-7.9c-5-2.6-10.4-4-15.8-5.2c-11.2-2.3-13.8-9.3-6.9-18.7c7.1-9.7,15.9-18.2,22.4-28.4
			c0.9-1.5,1.9-2.9,2.7-4.4c2.7-5.3,1.3-8.2-4.5-7.9c-9.4,0.6-18.9,1-27.5,5.9c-2.2,1.2-4.6,3.4-7,1.3c-2.3-2.1-1.7-5.2-0.8-7.9
			C307.1,9.2,314.9,4,325.1,2.1C331.2,0.9,337.5,0.7,343.7,0.1z"/>
		<path class="st0" d="M477.6,96.4c4.2-2,7-5.5,10.1-8.7c2-2,3.7-4.3,5.8-6c9.8-8.1,17.4-5.3,19.6,7.1c2.9,16.1,4.4,16.6,17.8,6.6
			c2.9-2.2,5.8-4.4,8.9-6.3c1.6-1,3.9-1.4,5.2,0.6c1.1,1.7,0.1,3.4-1,4.7c-7,8.3-15.1,15.5-24.9,20.3c-8.3,4-14.8,0.8-18.6-8.1
			c-5.2-12.3-5.3-12.3-15.3-2.8c-4.8,4.6-9.4,9.5-14,14.3c-1.1,1.1-2,2.3-3.2,3.2c-2.9,2.3-6,5.2-9.8,3.6c-4.2-1.8-3-6.3-2.9-9.8
			c0-6.2,3.5-11.5,4.4-17.5c0.3-1.8,1.5-4.1-0.6-5.3c-1.8-1.1-3.1,1-4.4,1.9c-7.2,5.1-13.7,11.2-19.9,17.4
			c-3.9,3.9-8.6,6.5-13.5,8.7c-6.5,2.9-11,1.3-14.8-4.9c-2.8-4.5-4.1-9.5-5.3-14.5c-1.5-6.5-2.7-6.8-7.8-2.3
			c-3.4,2.9-6.7,6.1-10.5,8.6c-1.8,1.2-4.5,4-6.8,1.1c-1.8-2.3,0.5-4.5,1.9-6.3c3.3-3.9,6.8-7.8,10.5-11.4c4-3.9,7.8-8,11-12.6
			c2.7-3.8,6.2-4.4,10.3-3.4c4.1,1,5.9,4.1,6.5,8c0.6,3.8,1,7.7,1.5,11.5c1.1,8.7,6.2,11.3,13.9,6.7c6.6-3.9,11.5-9.7,16.7-15.1
			c6.8-7.1,13.4-14.5,21.1-20.8c2.5-2,4.8-4.4,8.6-2.3c3.6,1.9,4.3,5,4.4,8.7c0.2,6.5-2.3,12.2-4.5,18
			C477.6,91.4,475.7,93.3,477.6,96.4z"/>
		<path class="st0" d="M157.7,93.8c4.5-5.2,9.1-10.2,13.4-15.5c2.7-3.3,6-4.8,10.2-4c4.4,0.8,5.7,4.4,6.6,7.9
			c1.3,5,2.1,10.1,2.5,15.3c0.3,4.5,2,7,7.6,5.6c6.7-1.7,11.2-6.3,15.9-10.6c2.3-2.1,4.7-3.8,7.5-4.9c2-0.7,3.9-0.8,4.8,1.7
			c0.6,1.8,1,3.6-0.9,5.2c-8.2,7-16.2,14.1-24.4,21.1c-1.8,1.5-3.7,3-5.8,4c-8.5,4.2-14.6,1.9-18.1-7c-1.5-3.8-2.6-7.8-3.9-11.7
			c-2.1-6.6-2.3-6.7-7.9-2.1c-2.5,2.1-4.9,4.2-7.4,6.2c-1.3,1.1-2.9,2.7-4.3,2.6c-8.9-0.4-14.1,6.4-20.6,10.4
			c-5.4,3.4-11.2,5.3-17.7,5c-9.2-0.5-13.6-5.7-12.5-14.9c0.3-2.3,1.8-5.3-0.3-6.7c-2.6-1.7-4.5,1.5-6.6,2.7c-2,1.2-3.8,2.9-5.8,4.1
			c-1.5,0.9-3.2,1.7-4.7,0.1s-0.2-3.1,0.4-4.7c3-6.9,9.2-10.9,14.7-15.1c7.3-5.5,11.2-13.5,17.3-19.8c8.7-8.8,12.4-9.8,23.9-5.3
			c1.8,0.7,3.8,0.8,5.7,1c9,0.9,14.3,7.8,12.5,16.6c-0.8,4-2.1,7.8-3.1,11.7C157,93.4,157.4,93.6,157.7,93.8z M120.4,103.5
			c0,2.7-0.5,5.2,1.5,6.6c2.5,1.7,4.4-0.5,6.4-1.6c8.2-4.5,12-12.6,16.1-20.4c1.2-2.4,1.6-5.8-0.9-7.8c-2.8-2.2-5.9-0.8-8.2,1.3
			c-2.4,2.1-3.9,5.8-6.5,6.9C121.4,91.7,121.8,98.3,120.4,103.5z"/>
		<path class="st0" d="M244.4,121.9c1-23.3,4.5-45.6,7.1-68.1c0.8-6.8,1.3-13.7,1.9-20.6c0.1-1.7,0.5-3.6-1.3-4.7
			c-1.9-1.1-3.2,0.5-4.6,1.4c-2.7,1.8-5.3,3.6-8.1,5.3c-1.4,0.9-3,2.5-4.6,1.1c-1.8-1.6-0.6-3.6,0.3-5.3c0.7-1.3,1.5-2.6,2.4-3.8
			c5.1-7,10.1-14,15.2-20.9c3.3-4.4,6.5-8.8,13.2-6.4c6.6,2.4,7.5,7.3,7.4,13.4c-0.4,16.7-4,32.9-6.2,49.3c-2.6,19.6-6.7,39-12.3,58
			c-0.1,0.4-0.1,0.9-0.3,1.3c-1.6,4.5-4,11.2-7.7,10.7C242.1,131.9,245.7,125.2,244.4,121.9z"/>
		<path class="st0" d="M184.5,50.8c-5.5,0-9.7-5.3-9.8-12c0-3.9,8.8-11.1,14-10.9c4.6,0.1,7.8,2.4,7.7,7.6
			C196.2,45.3,191.9,50.9,184.5,50.8z"/>
		<path class="st0" d="M424.5,35.6c-0.1,9.9-4,15.2-11,15.2c-5.8,0-10.1-5.1-9.9-11.9c0.1-4.3,8.2-11,13.3-10.8
			C421.9,28.3,425.2,30.5,424.5,35.6z"/>
	</g>
</g>
</svg>
